<svg width="11" height="18" viewBox="0 0 11 18" fill="none" xmlns="http://www.w3.org/2000/svg">
<path d="M9.79597 15.7041C10.0073 15.9154 10.1261 16.2021 10.1261 16.5009C10.1261 16.7998 10.0073 17.0865 9.79597 17.2978C9.58463 17.5092 9.29799 17.6279 8.9991 17.6279C8.70021 17.6279 8.41357 17.5092 8.20222 17.2978L0.702224 9.79781C0.597345 9.6933 0.514128 9.5691 0.457347 9.43236C0.400566 9.29561 0.371338 9.149 0.371338 9.00094C0.371338 8.85287 0.400566 8.70626 0.457347 8.56952C0.514128 8.43277 0.597345 8.30858 0.702224 8.20406L8.20222 0.704062C8.41357 0.492717 8.70021 0.373985 8.9991 0.373985C9.29799 0.373985 9.58463 0.492717 9.79597 0.704062C10.0073 0.915406 10.1261 1.20205 10.1261 1.50094C10.1261 1.79982 10.0073 2.08647 9.79597 2.29781L3.09379 9L9.79597 15.7041Z" fill="white"/>
</svg>
