<svg width="11" height="11" viewBox="0 0 11 11" fill="none" xmlns="http://www.w3.org/2000/svg">
<path d="M4.54894 1.53817C4.8483 0.616856 6.1517 0.616855 6.45106 1.53817L6.95934 3.1025C7.09322 3.51453 7.47717 3.79349 7.9104 3.79349H9.55524C10.524 3.79349 10.9267 5.0331 10.143 5.6025L8.81232 6.56932C8.46183 6.82396 8.31517 7.27533 8.44905 7.68735L8.95733 9.25169C9.25669 10.173 8.20221 10.9391 7.41849 10.3697L6.08779 9.40291C5.7373 9.14827 5.2627 9.14827 4.91221 9.40291L3.58151 10.3697C2.7978 10.9391 1.74332 10.173 2.04267 9.25169L2.55095 7.68735C2.68483 7.27533 2.53817 6.82396 2.18768 6.56932L0.856975 5.6025C0.0732617 5.0331 0.476037 3.79349 1.44476 3.79349H3.0896C3.52283 3.79349 3.90678 3.51453 4.04066 3.1025L4.54894 1.53817Z" fill="#FFC403"/>
</svg>
