<svg width="11" height="8" viewBox="0 0 11 8" fill="none" xmlns="http://www.w3.org/2000/svg">
<path d="M5.66645 5.963C6.24515 5.963 6.73705 5.76045 7.14214 5.35536C7.54723 4.95026 7.74978 4.45837 7.74978 3.87966C7.74978 3.30096 7.54723 2.80906 7.14214 2.40397C6.73705 1.99888 6.24515 1.79633 5.66645 1.79633C5.08774 1.79633 4.59584 1.99888 4.19075 2.40397C3.78566 2.80906 3.58311 3.30096 3.58311 3.87966C3.58311 4.45837 3.78566 4.95026 4.19075 5.35536C4.59584 5.76045 5.08774 5.963 5.66645 5.963ZM5.66645 5.12966C5.31922 5.12966 5.02408 5.00813 4.78103 4.76508C4.53797 4.52202 4.41645 4.22688 4.41645 3.87966C4.41645 3.53244 4.53797 3.2373 4.78103 2.99425C5.02408 2.75119 5.31922 2.62966 5.66645 2.62966C6.01367 2.62966 6.30881 2.75119 6.55186 2.99425C6.79492 3.2373 6.91645 3.53244 6.91645 3.87966C6.91645 4.22688 6.79492 4.52202 6.55186 4.76508C6.30881 5.00813 6.01367 5.12966 5.66645 5.12966ZM5.66645 7.35188C4.5399 7.35188 3.51367 7.03746 2.58774 6.4086C1.66182 5.77974 0.990519 4.93676 0.573853 3.87966C0.990519 2.82256 1.66182 1.97959 2.58774 1.35073C3.51367 0.721869 4.5399 0.40744 5.66645 0.40744C6.79299 0.40744 7.81922 0.721869 8.74515 1.35073C9.67107 1.97959 10.3424 2.82256 10.759 3.87966C10.3424 4.93676 9.67107 5.77974 8.74515 6.4086C7.81922 7.03746 6.79299 7.35188 5.66645 7.35188Z" fill="#D1CCCD"/>
</svg>
