<svg width="7" height="12" viewBox="0 0 7 12" fill="none" xmlns="http://www.w3.org/2000/svg">
<path d="M6.21401 9.9107C6.3373 10.034 6.40656 10.2012 6.40656 10.3755C6.40656 10.5499 6.3373 10.7171 6.21401 10.8404C6.09073 10.9637 5.92352 11.0329 5.74917 11.0329C5.57482 11.0329 5.40761 10.9637 5.28433 10.8404L0.909326 6.46539C0.848146 6.40442 0.799603 6.33197 0.766481 6.25221C0.733359 6.17244 0.716309 6.08692 0.716309 6.00054C0.716309 5.91417 0.733359 5.82865 0.766481 5.74888C0.799603 5.66911 0.848146 5.59667 0.909326 5.5357L5.28433 1.1607C5.40761 1.03742 5.57482 0.968155 5.74917 0.968155C5.92352 0.968155 6.09073 1.03742 6.21401 1.1607C6.3373 1.28398 6.40656 1.45119 6.40656 1.62554C6.40656 1.79989 6.3373 1.9671 6.21401 2.09039L2.3044 6L6.21401 9.9107Z" fill="white"/>
</svg>
