<svg width="18" height="15" viewBox="0 0 18 15" fill="none" xmlns="http://www.w3.org/2000/svg">
<path d="M17.7304 5.59452C17.7304 5.60312 17.7304 5.61093 17.725 5.61952L15.9531 13.7344C15.8986 14.0201 15.7461 14.2779 15.5219 14.4633C15.2977 14.6487 15.0159 14.7501 14.725 14.75H3.2742C2.98343 14.7499 2.7018 14.6484 2.47778 14.463C2.25376 14.2777 2.10138 14.02 2.04686 13.7344L0.274982 5.61952C0.274982 5.61093 0.271075 5.60312 0.269513 5.59452C0.221018 5.32585 0.261818 5.04869 0.385678 4.80539C0.509539 4.56209 0.709647 4.36603 0.955428 4.24717C1.20121 4.12831 1.47914 4.09319 1.74677 4.14716C2.01439 4.20114 2.25699 4.34125 2.43748 4.54608L5.06795 7.38124L7.86482 1.10858C7.86495 1.10598 7.86495 1.10337 7.86482 1.10077C7.96484 0.883855 8.1249 0.700135 8.32608 0.571359C8.52726 0.442584 8.76112 0.374146 8.99998 0.374146C9.23884 0.374146 9.4727 0.442584 9.67388 0.571359C9.87506 0.700135 10.0351 0.883855 10.1351 1.10077C10.135 1.10337 10.135 1.10598 10.1351 1.10858L12.932 7.38124L15.5625 4.54608C15.7434 4.34277 15.9856 4.20403 16.2525 4.15093C16.5194 4.09784 16.7963 4.13329 17.0413 4.2519C17.2862 4.37051 17.4857 4.56581 17.6095 4.80813C17.7333 5.05045 17.7747 5.32655 17.7273 5.59452H17.7304Z" fill="#B80002"/>
<path d="M17.7304 5.59452C17.7304 5.60312 17.7304 5.61093 17.725 5.61952L15.9531 13.7344C15.8986 14.0201 15.7461 14.2779 15.5219 14.4633C15.2977 14.6487 15.0159 14.7501 14.725 14.75H3.2742C2.98343 14.7499 2.7018 14.6484 2.47778 14.463C2.25376 14.2777 2.10138 14.02 2.04686 13.7344L0.274982 5.61952C0.274982 5.61093 0.271075 5.60312 0.269513 5.59452C0.221018 5.32585 0.261818 5.04869 0.385678 4.80539C0.509539 4.56209 0.709647 4.36603 0.955428 4.24717C1.20121 4.12831 1.47914 4.09319 1.74677 4.14716C2.01439 4.20114 2.25699 4.34125 2.43748 4.54608L5.06795 7.38124L7.86482 1.10858C7.86495 1.10598 7.86495 1.10337 7.86482 1.10077C7.96484 0.883855 8.1249 0.700135 8.32608 0.571359C8.52726 0.442584 8.76112 0.374146 8.99998 0.374146C9.23884 0.374146 9.4727 0.442584 9.67388 0.571359C9.87506 0.700135 10.0351 0.883855 10.1351 1.10077C10.135 1.10337 10.135 1.10598 10.1351 1.10858L12.932 7.38124L15.5625 4.54608C15.7434 4.34277 15.9856 4.20403 16.2525 4.15093C16.5194 4.09784 16.7963 4.13329 17.0413 4.2519C17.2862 4.37051 17.4857 4.56581 17.6095 4.80813C17.7333 5.05045 17.7747 5.32655 17.7273 5.59452H17.7304Z" fill="white"/>
</svg>
