<svg width="29" height="23" viewBox="0 0 29 23" fill="none" xmlns="http://www.w3.org/2000/svg">
<path d="M28.4688 8.35126C28.4688 8.36501 28.4688 8.37751 28.46 8.39126L25.625 21.375C25.5377 21.8322 25.2937 22.2446 24.9351 22.5413C24.5764 22.8379 24.1255 23.0001 23.66 23H5.33876C4.87352 22.9998 4.42291 22.8375 4.06448 22.5409C3.70605 22.2443 3.46224 21.832 3.37501 21.375L0.540007 8.39126C0.540007 8.37751 0.533757 8.36501 0.531257 8.35126C0.453666 7.92138 0.518946 7.47793 0.717122 7.08865C0.915298 6.69937 1.23547 6.38568 1.62872 6.1955C2.02197 6.00532 2.46667 5.94912 2.89487 6.03548C3.32307 6.12185 3.71121 6.34602 4.00001 6.67376L8.20876 11.21L12.6838 1.17376C12.684 1.16959 12.684 1.16542 12.6838 1.16126C12.8438 0.814192 13.0999 0.52024 13.4218 0.314199C13.7436 0.108159 14.1178 -0.00134277 14.5 -0.00134277C14.8822 -0.00134277 15.2564 0.108159 15.5782 0.314199C15.9001 0.52024 16.1562 0.814192 16.3163 1.16126C16.316 1.16542 16.316 1.16959 16.3163 1.17376L20.7913 11.21L25 6.67376C25.2894 6.34845 25.677 6.12647 26.1041 6.04152C26.5311 5.95657 26.9742 6.01329 27.366 6.20307C27.7579 6.39284 28.0771 6.70531 28.2753 7.09303C28.4734 7.48074 28.5396 7.92251 28.4638 8.35126H28.4688Z" fill="white"/>
<path d="M28.4688 8.35126C28.4688 8.36501 28.4688 8.37751 28.46 8.39126L25.625 21.375C25.5377 21.8322 25.2937 22.2446 24.9351 22.5413C24.5764 22.8379 24.1255 23.0001 23.66 23H5.33876C4.87352 22.9998 4.42291 22.8375 4.06448 22.5409C3.70605 22.2443 3.46224 21.832 3.37501 21.375L0.540007 8.39126C0.540007 8.37751 0.533757 8.36501 0.531257 8.35126C0.453666 7.92138 0.518946 7.47793 0.717122 7.08865C0.915298 6.69937 1.23547 6.38568 1.62872 6.1955C2.02197 6.00532 2.46667 5.94912 2.89487 6.03548C3.32307 6.12185 3.71121 6.34602 4.00001 6.67376L8.20876 11.21L12.6838 1.17376C12.684 1.16959 12.684 1.16542 12.6838 1.16126C12.8438 0.814192 13.0999 0.52024 13.4218 0.314199C13.7436 0.108159 14.1178 -0.00134277 14.5 -0.00134277C14.8822 -0.00134277 15.2564 0.108159 15.5782 0.314199C15.9001 0.52024 16.1562 0.814192 16.3163 1.16126C16.316 1.16542 16.316 1.16959 16.3163 1.17376L20.7913 11.21L25 6.67376C25.2894 6.34845 25.677 6.12647 26.1041 6.04152C26.5311 5.95657 26.9742 6.01329 27.366 6.20307C27.7579 6.39284 28.0771 6.70531 28.2753 7.09303C28.4734 7.48074 28.5396 7.92251 28.4638 8.35126H28.4688Z" fill="url(#paint0_linear_20_317)"/>
<defs>
<linearGradient id="paint0_linear_20_317" x1="2.61701" y1="11.4993" x2="22.6236" y2="23.3187" gradientUnits="userSpaceOnUse">
<stop stop-color="#81001B"/>
<stop offset="1" stop-color="#FF2C2C"/>
</linearGradient>
</defs>
</svg>
