<svg width="32" height="30" viewBox="0 0 32 30" fill="none" xmlns="http://www.w3.org/2000/svg">
<path d="M15.9999 8.24997C14.6649 8.24997 13.3598 8.64585 12.2498 9.38755C11.1398 10.1293 10.2746 11.1835 9.76371 12.4169C9.25282 13.6503 9.11915 15.0075 9.3796 16.3168C9.64005 17.6262 10.2829 18.8289 11.2269 19.7729C12.1709 20.7169 13.3737 21.3598 14.683 21.6203C15.9924 21.8807 17.3496 21.747 18.583 21.2362C19.8164 20.7253 20.8706 19.8601 21.6123 18.7501C22.354 17.64 22.7499 16.335 22.7499 15C22.748 13.2103 22.0363 11.4945 20.7708 10.2291C19.5054 8.96359 17.7895 8.25183 15.9999 8.24997ZM15.9999 19.5C15.1099 19.5 14.2399 19.2361 13.4998 18.7416C12.7598 18.2471 12.183 17.5443 11.8424 16.722C11.5018 15.8998 11.4127 14.995 11.5864 14.1221C11.76 13.2492 12.1886 12.4473 12.8179 11.818C13.4473 11.1887 14.2491 10.7601 15.122 10.5864C15.9949 10.4128 16.8997 10.5019 17.722 10.8425C18.5442 11.1831 19.247 11.7599 19.7415 12.4999C20.236 13.2399 20.4999 14.11 20.4999 15C20.4999 16.1934 20.0258 17.338 19.1819 18.182C18.338 19.0259 17.1934 19.5 15.9999 19.5ZM31.4602 12.0764C31.4289 11.918 31.3638 11.7681 31.2694 11.6371C31.175 11.5061 31.0535 11.3969 30.9132 11.317L26.7183 8.92638L26.7015 4.19857C26.701 4.03574 26.6651 3.87497 26.5964 3.72735C26.5277 3.57973 26.4278 3.44879 26.3035 3.34357C24.7818 2.05642 23.0295 1.07003 21.1397 0.436848C20.9909 0.386476 20.8332 0.367835 20.6767 0.382125C20.5203 0.396415 20.3685 0.443319 20.2313 0.519817L15.9999 2.88513L11.7643 0.515598C11.627 0.438669 11.475 0.391411 11.3183 0.376877C11.1616 0.362343 11.0036 0.380857 10.8544 0.431223C8.96605 1.06904 7.21575 2.05919 5.69631 3.34919C5.57223 3.45426 5.4724 3.58498 5.4037 3.73234C5.335 3.8797 5.29905 4.0402 5.29834 4.20279L5.27725 8.93482L1.0824 11.3254C0.94206 11.4053 0.820564 11.5145 0.726172 11.6455C0.631781 11.7766 0.566706 11.9264 0.53537 12.0848C0.151459 14.014 0.151459 16 0.53537 17.9292C0.566706 18.0876 0.631781 18.2374 0.726172 18.3685C0.820564 18.4995 0.94206 18.6087 1.0824 18.6886L5.27725 21.0792L5.29412 25.807C5.29463 25.9698 5.33048 26.1306 5.39919 26.2782C5.4679 26.4258 5.56783 26.5568 5.69209 26.662C7.21375 27.9491 8.96606 28.9355 10.8558 29.5687C11.0047 29.6191 11.1624 29.6377 11.3188 29.6234C11.4753 29.6092 11.627 29.5622 11.7643 29.4858L15.9999 27.1148L20.2355 29.4843C20.4031 29.5777 20.5921 29.6262 20.784 29.625C20.9068 29.6249 21.0289 29.605 21.1454 29.5659C23.0335 28.9289 24.7838 27.9398 26.3035 26.6508C26.4276 26.5457 26.5274 26.415 26.5961 26.2676C26.6648 26.1202 26.7008 25.9597 26.7015 25.7972L26.7226 21.0651L30.9174 18.6745C31.0577 18.5946 31.1792 18.4854 31.2736 18.3544C31.368 18.2234 31.4331 18.0735 31.4644 17.9151C31.8462 15.9875 31.8448 14.0035 31.4602 12.0764ZM29.3508 16.9856L25.3332 19.2708C25.1572 19.3708 25.0114 19.5166 24.9113 19.6926C24.8297 19.8333 24.744 19.9823 24.6568 20.1229C24.5452 20.3003 24.4857 20.5054 24.4852 20.715L24.4641 25.2501C23.3842 26.0982 22.1811 26.7763 20.8965 27.2611L16.8437 25.0026C16.6754 24.9095 16.4861 24.8611 16.2938 24.862H16.2671C16.0969 24.862 15.9254 24.862 15.7552 24.862C15.554 24.857 15.355 24.9055 15.1787 25.0026L11.123 27.2667C9.83562 26.7856 8.62922 26.1108 7.54553 25.2656L7.53006 20.7375C7.52936 20.5275 7.46994 20.322 7.3585 20.144C7.27131 20.0034 7.18553 19.8628 7.10537 19.7137C7.00598 19.535 6.86024 19.3863 6.6835 19.2834L2.66162 16.9926C2.45349 15.6761 2.45349 14.3351 2.66162 13.0186L6.67225 10.7292C6.84828 10.6291 6.99403 10.4833 7.09412 10.3073C7.17568 10.1667 7.26146 10.0176 7.34865 9.877C7.46026 9.69967 7.51971 9.4945 7.52021 9.28497L7.54131 4.74982C8.62121 3.90177 9.8243 3.22364 11.109 2.73888L15.1562 4.99732C15.3323 5.09495 15.5314 5.14352 15.7327 5.13794C15.9029 5.13794 16.0744 5.13794 16.2446 5.13794C16.4458 5.14297 16.6448 5.09444 16.8211 4.99732L20.8768 2.73325C22.1642 3.2143 23.3706 3.8891 24.4543 4.73435L24.4697 9.26247C24.4704 9.47242 24.5299 9.67798 24.6413 9.85591C24.7285 9.99653 24.8143 10.1372 24.8944 10.2862C24.9938 10.465 25.1396 10.6136 25.3163 10.7165L29.3382 13.0073C29.5491 14.3248 29.5515 15.6673 29.3452 16.9856H29.3508Z" fill="white"/>
</svg>
