<svg width="11" height="11" viewBox="0 0 11 11" fill="none" xmlns="http://www.w3.org/2000/svg">
<path d="M5.02441 1.69315C5.17409 1.23249 5.82591 1.23249 5.97559 1.69315L6.4834 3.25662C6.68418 3.87458 7.26042 4.29363 7.91016 4.29373H9.55566C10.0396 4.29409 10.241 4.91331 9.84961 5.19803L8.51855 6.16483C7.99289 6.54675 7.77294 7.22361 7.97363 7.84158L8.48145 9.40604C8.63112 9.86669 8.10377 10.2503 7.71191 9.96561L6.38184 8.99881C5.85611 8.61684 5.1439 8.61684 4.61816 8.99881L3.28809 9.96561C2.89623 10.2503 2.36888 9.86669 2.51855 9.40604L3.02637 7.84158C3.22706 7.22361 3.00711 6.54675 2.48145 6.16483L1.15039 5.19803C0.759046 4.91331 0.960404 4.29409 1.44434 4.29373H3.08984C3.73958 4.29363 4.31581 3.87458 4.5166 3.25662L5.02441 1.69315Z" fill="#614B02" stroke="#FFC305"/>
</svg>
